<svg xmlns="http://www.w3.org/2000/svg" xmlns:xlink="http://www.w3.org/1999/xlink" width="1280" zoomAndPan="magnify" viewBox="0 0 960 576.75" height="769" preserveAspectRatio="xMidYMid meet" version="1.0"><defs><g/></defs><path stroke-linecap="butt" transform="matrix(0.77979, 0, 0, 0.77979, 111.033974, 262.851776)" fill="none" stroke-linejoin="miter" d="M 152.005488 18.288894 C 153.598464 18.288894 154.389943 19.185569 154.389943 20.983929 L 154.389943 134.110271 C 154.389943 134.966871 154.039288 135.67319 153.337977 136.219211 C 152.656705 136.740184 151.785076 137.00067 150.718083 137.00067 L 128.807149 137.00067 C 127.840343 137.00067 127.058883 136.84538 126.462769 136.529791 C 125.886693 136.194164 125.225458 135.552966 124.469045 134.616216 L 80.486878 74.92971 C 80.041045 74.38369 79.665343 74.163278 79.349753 74.263465 C 79.039173 74.368662 78.883883 74.69427 78.883883 75.24029 L 78.883883 133.484101 C 78.98908 134.761487 78.738612 135.67319 78.142498 136.219211 C 77.566422 136.740184 76.524475 137.00067 75.016658 137.00067 L 53.256005 137.00067 C 50.601045 137.00067 49.273565 135.933677 49.273565 133.794681 L 49.273565 21.960754 C 49.273565 19.511178 50.445755 18.288894 52.790135 18.288894 L 78.883883 18.288894 C 80.261457 18.288894 81.293384 18.469231 81.969648 18.834914 C 82.670958 19.200598 83.452418 19.982057 84.314028 21.179294 L 122.71076 74.61913 C 123.361977 75.55588 123.948071 76.02175 124.469045 76.02175 C 125.015065 76.02175 125.29058 75.335468 125.29058 73.952885 L 125.29058 21.650174 C 125.29058 19.410991 126.462769 18.288894 128.807149 18.288894 Z M 171.031031 21.960754 C 171.031031 19.511178 172.047931 18.288894 174.081731 18.288894 L 260.488154 18.288894 C 262.386701 18.288894 263.338479 19.410991 263.338479 21.650174 L 263.183189 40.204837 C 263.183189 43.095237 261.800606 44.537933 259.04045 44.537933 L 211.035768 44.537933 C 208.586192 44.537933 207.363908 45.539804 207.363908 47.548557 L 207.363908 61.138946 C 207.363908 62.20594 207.624395 63.042503 208.145368 63.638616 C 208.691388 64.239739 209.392698 64.540301 210.254308 64.540301 L 239.043091 64.540301 C 241.282274 64.540301 242.399361 65.592266 242.399361 67.701206 L 242.399361 87.548284 C 242.399361 89.37169 241.437564 90.283394 239.508961 90.283394 L 209.898643 90.283394 C 209.172286 90.283394 208.561145 90.503805 208.065218 90.944629 C 207.594339 91.360406 207.363908 91.881379 207.363908 92.507549 L 207.363908 108.522468 C 207.363908 109.384077 207.494151 109.970172 207.754638 110.280753 C 208.015125 110.591333 208.52107 110.751632 209.277483 110.751632 L 261.269614 110.751632 C 263.613994 110.751632 264.781174 111.763523 264.781174 113.797322 L 264.781174 133.484101 C 264.781174 134.551094 264.455566 135.412704 263.809359 136.06392 C 263.183189 136.685081 262.231411 137.00067 260.954025 137.00067 L 175.369136 137.00067 C 173.756122 137.00067 172.624007 136.685081 171.972791 136.06392 C 171.346621 135.412704 171.031031 134.395804 171.031031 133.013221 Z M 438.395519 18.288894 C 439.983486 18.288894 441.230816 18.694652 442.142519 19.501159 C 443.054222 20.282619 443.510074 21.359631 443.510074 22.742214 C 443.510074 23.183038 443.404877 23.834254 443.199494 24.695864 L 410.698776 133.013221 C 410.177803 134.395804 409.486511 135.412704 408.629911 136.06392 C 407.768301 136.685081 406.546018 137.00067 404.958051 137.00067 L 382.886818 137.00067 C 379.786025 137.00067 377.857422 135.67319 377.106019 133.013221 L 360.46493 76.687995 C 360.14934 75.305412 359.788666 74.61913 359.36788 74.61913 C 359.032253 74.61913 358.551355 75.410609 357.925185 76.998575 L 341.439386 133.013221 C 340.998563 134.395804 340.3223 135.412704 339.410596 136.06392 C 338.52394 136.685081 337.2716 137.00067 335.658587 137.00067 L 312.805894 137.00067 C 311.19288 137.00067 309.955569 136.685081 309.098968 136.06392 C 308.262406 135.412704 307.571114 134.395804 307.025094 133.013221 L 274.409161 24.695864 C 274.173721 23.834254 274.058506 23.183038 274.058506 22.742214 C 274.058506 21.359631 274.514358 20.282619 275.426061 19.501159 C 276.337764 18.694652 277.585095 18.288894 279.173061 18.288894 L 305.582399 18.288894 C 307.195412 18.288894 308.367602 18.564409 309.098968 19.110429 C 309.850372 19.631402 310.386374 20.477984 310.696954 21.650174 L 327.688698 80.986024 C 328.004287 82.288458 328.36997 82.939674 328.785747 82.939674 C 329.121374 82.939674 329.396889 82.508869 329.602273 81.64726 L 346.403661 21.650174 C 346.924634 19.410991 348.627816 18.288894 351.518216 18.288894 L 373.900029 18.288894 C 375.518052 18.288894 376.690242 18.564409 377.416599 19.110429 C 378.173012 19.631402 378.704004 20.477984 379.019593 21.650174 L 396.637507 82.42872 C 396.842891 83.079936 397.15848 83.460648 397.574257 83.560835 C 398.015081 83.666031 398.290595 83.395526 398.395792 82.744309 L 414.721291 21.650174 C 415.242264 19.410991 416.950455 18.288894 419.840855 18.288894 Z M 526.535181 50.123367 C 523.985417 47.338164 521.235279 45.204177 518.294786 43.716398 C 515.379339 42.233628 511.146431 41.492243 505.601072 41.492243 C 500.050702 41.492243 495.938019 42.298749 493.258012 43.911763 C 490.598043 45.504739 489.270563 47.418314 489.270563 49.657497 C 489.270563 53.484647 492.681936 56.19471 499.504682 57.782676 L 526.06931 64.695591 C 535.782456 67.145167 543.086101 71.438187 547.980244 77.58467 C 552.904443 83.706106 555.364038 91.034797 555.364038 99.575754 C 555.364038 107.470502 553.280145 114.343342 549.117368 120.204292 C 544.949582 126.060232 538.998464 130.593701 531.264015 133.794681 C 523.529565 137.00067 514.492683 138.603665 504.153367 138.603665 C 492.411431 138.603665 481.706432 136.660034 472.04338 132.782791 C 462.410383 128.875491 455.727899 123.770955 452.005946 117.469182 C 451.459926 116.402189 451.184411 115.605701 451.184411 115.084727 C 451.184411 114.017734 451.770506 113.055937 452.942696 112.194327 L 469.428494 100.828093 C 470.600684 100.096727 471.667678 99.736053 472.629474 99.736053 C 473.801664 99.736053 474.763461 100.201923 475.519874 101.138673 C 479.14164 105.85248 482.8135 109.173684 486.535453 111.102287 C 490.287463 113.000834 495.246728 113.952612 501.418257 113.952612 C 507.40945 113.952612 512.133275 113.131077 515.599751 111.493017 C 519.061218 109.824901 520.794456 107.560671 520.794456 104.695318 C 520.794456 102.666528 519.932846 100.908243 518.214636 99.420463 C 516.521473 97.912647 514.021803 96.780532 510.715627 96.024118 L 486.380163 90.123094 C 476.797261 87.783724 469.178026 83.380498 463.52747 76.923435 C 457.876914 70.461362 455.051636 63.027474 455.051636 54.616762 C 455.051636 47.663772 457.070407 41.28185 461.10795 35.476003 C 465.17054 29.670157 470.926293 25.086594 478.375209 21.725314 C 485.849171 18.369044 494.490315 16.6859 504.308657 16.6859 C 513.921616 16.6859 522.828255 18.263848 531.028575 21.414734 C 539.233904 24.540574 545.154966 28.718379 548.801779 33.953158 C 549.533145 34.914955 549.893819 35.826658 549.893819 36.688268 C 549.893819 37.414625 549.533145 38.105916 548.801779 38.757133 L 531.339155 51.415782 C 530.818182 51.831558 530.237096 52.036942 529.58588 52.036942 C 528.854513 52.036942 527.837614 51.400754 526.535181 50.123367 Z M 598.549717 137.00067 C 597.688108 137.00067 596.986797 136.715137 596.440777 136.139061 C 595.919804 135.542947 595.659318 134.706384 595.659318 133.639391 C 595.659318 132.882978 595.824626 132.026378 596.165263 131.064581 L 634.877585 21.960754 C 635.398558 20.58318 635.984653 19.631402 636.635869 19.110429 C 637.287086 18.564409 638.298976 18.288894 639.681559 18.288894 L 671.205452 18.288894 C 672.482838 18.288894 673.624972 18.694652 674.641872 19.501159 C 675.658772 20.282619 676.425203 21.309537 676.946177 22.586924 L 715.342909 131.570526 C 715.553302 132.432136 715.658499 133.068324 715.658499 133.484101 C 715.658499 134.445898 715.448106 135.28246 715.032329 135.983771 C 714.616552 136.660034 713.980364 137.00067 713.118754 137.00067 L 681.750152 137.00067 C 679.926745 137.00067 678.754555 136.088967 678.233582 134.265561 L 671.986912 115.866187 C 671.671322 115.13983 671.37577 114.643904 671.085227 114.383417 C 670.824741 114.097884 670.333824 113.952612 669.602457 113.952612 L 635.659045 113.952612 C 634.381658 113.952612 633.58517 114.538707 633.27459 115.710897 L 626.71233 134.616216 C 626.061114 136.204182 624.783727 137.00067 622.885181 137.00067 Z M 661.597503 86.766824 C 662.769692 86.766824 663.350778 86.230823 663.350778 85.163829 C 663.350778 84.953436 663.250591 84.422444 663.040198 83.560835 L 653.432248 56.219756 C 653.221855 55.673736 652.896247 55.398222 652.455423 55.398222 C 652.039647 55.398222 651.724057 55.673736 651.518673 56.219756 L 641.750424 83.405545 C 641.545041 83.821321 641.439844 84.357323 641.439844 85.008539 C 641.439844 86.180729 642.076033 86.766824 643.353419 86.766824 Z M 831.975802 56.845926 C 831.975802 64.525273 830.137367 71.192729 826.465507 76.843285 C 822.793648 82.493841 817.62399 86.841964 810.956534 89.892664 C 804.294087 92.913307 796.634778 94.421124 787.988625 94.421124 L 766.077691 94.421124 C 764.800305 94.421124 764.164116 95.022247 764.164116 96.219483 L 764.164116 132.351986 C 764.164116 134.070196 763.733312 135.28246 762.871702 135.983771 C 762.015102 136.660034 760.687622 137.00067 758.889262 137.00067 L 731.973979 137.00067 C 730.386013 137.00067 729.293972 136.685081 728.692849 136.06392 C 728.121783 135.412704 727.836249 134.395804 727.836249 133.013221 L 727.836249 21.960754 C 727.836249 19.511178 728.848139 18.288894 730.881939 18.288894 L 783.850895 18.288894 C 792.807628 18.288894 800.932807 19.761646 808.226433 22.702139 C 815.540096 25.617586 821.325905 29.95569 825.568832 35.711443 C 829.836805 41.467196 831.975802 48.510354 831.975802 56.845926 Z M 794.866474 56.375046 C 794.866474 52.623037 793.589088 49.602394 791.039324 47.313117 C 788.484552 45.018831 785.333665 43.876697 781.581656 43.876697 L 767.835976 43.876697 C 766.453393 43.876697 765.491596 44.147203 764.945576 44.693223 C 764.424603 45.214196 764.164116 46.060777 764.164116 47.232967 L 764.164116 65.321761 C 764.164116 66.594138 764.3695 67.505841 764.785277 68.05687 C 765.23111 68.577844 765.917392 68.83833 766.859151 68.83833 L 782.558481 68.83833 C 786.285443 68.83833 789.266012 67.636084 791.505195 65.241611 C 793.744378 62.847138 794.866474 59.891616 794.866474 56.375046 Z M 948.934302 56.845926 C 948.934302 64.525273 947.100877 71.192729 943.429017 76.843285 C 939.757158 82.493841 934.5875 86.841964 927.920044 89.892664 C 921.252587 92.913307 913.598288 94.421124 904.952135 94.421124 L 883.036192 94.421124 C 881.758806 94.421124 881.122617 95.022247 881.122617 96.219483 L 881.122617 132.351986 C 881.122617 134.070196 880.691812 135.28246 879.835212 135.983771 C 878.973602 136.660034 877.646122 137.00067 875.847763 137.00067 L 848.93248 137.00067 C 847.344513 137.00067 846.252473 136.685081 845.65135 136.06392 C 845.080283 135.412704 844.79475 134.395804 844.79475 133.013221 L 844.79475 21.960754 C 844.79475 19.511178 845.811649 18.288894 847.84044 18.288894 L 900.809396 18.288894 C 909.766129 18.288894 917.891308 19.761646 925.184934 22.702139 C 932.503607 25.617586 938.284406 29.95569 942.527333 35.711443 C 946.800315 41.467196 948.934302 48.510354 948.934302 56.845926 Z M 911.824975 56.375046 C 911.824975 52.623037 910.547588 49.602394 907.997825 47.313117 C 905.443052 45.018831 902.292166 43.876697 898.545166 43.876697 L 884.794477 43.876697 C 883.411894 43.876697 882.450097 44.147203 881.904077 44.693223 C 881.383104 45.214196 881.122617 46.060777 881.122617 47.232967 L 881.122617 65.321761 C 881.122617 66.594138 881.328001 67.505841 881.748787 68.05687 C 882.18961 68.577844 882.880902 68.83833 883.817652 68.83833 L 899.521991 68.83833 C 903.243944 68.83833 906.224512 67.636084 908.463695 65.241611 C 910.702879 62.847138 911.824975 59.891616 911.824975 56.375046 Z M 911.824975 56.375046 " stroke="#0097b2" stroke-width="6" stroke-opacity="1" stroke-miterlimit="4"/><g fill="#0097b2" fill-opacity="1"><g transform="translate(247.179255, 231.974348)"><g><path d="M 5.40625 -74.75 C 5.40625 -75.507812 5.578125 -76.097656 5.921875 -76.515625 C 6.273438 -76.929688 6.757812 -77.140625 7.375 -77.140625 L 62.796875 -77.140625 C 64.046875 -77.140625 64.671875 -76.414062 64.671875 -74.96875 L 64.5625 -62.90625 C 64.5625 -61.03125 63.695312 -60.09375 61.96875 -60.09375 L 31.40625 -60.09375 C 29.800781 -60.09375 29 -59.4375 29 -58.125 L 29 -48.34375 C 29 -46.957031 29.625 -46.265625 30.875 -46.265625 L 49.90625 -46.265625 C 51.289062 -46.265625 51.984375 -45.570312 51.984375 -44.1875 L 51.984375 -31.5 C 51.984375 -30.320312 51.359375 -29.734375 50.109375 -29.734375 L 30.671875 -29.734375 C 30.179688 -29.734375 29.78125 -29.59375 29.46875 -29.3125 C 29.15625 -29.039062 29 -28.660156 29 -28.171875 L 29 -3.015625 C 29 -1.910156 28.722656 -1.128906 28.171875 -0.671875 C 27.617188 -0.222656 26.753906 0 25.578125 0 L 8.21875 0 C 7.175781 0 6.445312 -0.207031 6.03125 -0.625 C 5.613281 -1.039062 5.40625 -1.695312 5.40625 -2.59375 Z M 5.40625 -74.75 "/></g></g></g><g fill="#0097b2" fill-opacity="1"><g transform="translate(314.758495, 231.974348)"><g><path d="M 5.40625 -74.75 C 5.40625 -75.507812 5.578125 -76.097656 5.921875 -76.515625 C 6.273438 -76.929688 6.757812 -77.140625 7.375 -77.140625 L 27.140625 -77.140625 C 28.378906 -77.140625 29 -76.414062 29 -74.96875 L 29 -18.5 C 29 -17.945312 29.085938 -17.566406 29.265625 -17.359375 C 29.441406 -17.148438 29.769531 -17.046875 30.25 -17.046875 L 61.546875 -17.046875 C 63.140625 -17.046875 63.9375 -16.390625 63.9375 -15.078125 L 63.9375 -2.28125 C 63.9375 -1.59375 63.710938 -1.039062 63.265625 -0.625 C 62.816406 -0.207031 62.175781 0 61.34375 0 L 8.21875 0 C 7.175781 0 6.445312 -0.207031 6.03125 -0.625 C 5.613281 -1.039062 5.40625 -1.695312 5.40625 -2.59375 Z M 5.40625 -74.75 "/></g></g></g><g fill="#0097b2" fill-opacity="1"><g transform="translate(381.609953, 231.974348)"><g><path d="M 71.109375 -30.46875 C 71.109375 -19.09375 68.234375 -10.992188 62.484375 -6.171875 C 56.734375 -1.359375 48.519531 1.046875 37.84375 1.046875 C 25.851562 1.046875 17.3125 -1.722656 12.21875 -7.265625 C 7.125 -12.816406 4.578125 -21.242188 4.578125 -32.546875 L 4.578125 -74.75 C 4.578125 -75.507812 4.75 -76.097656 5.09375 -76.515625 C 5.4375 -76.929688 5.921875 -77.140625 6.546875 -77.140625 L 26.296875 -77.140625 C 27.546875 -77.140625 28.171875 -76.414062 28.171875 -74.96875 L 28.171875 -30.046875 C 28.171875 -24.921875 29.160156 -21.210938 31.140625 -18.921875 C 33.117188 -16.628906 35.941406 -15.484375 39.609375 -15.484375 C 43.210938 -15.484375 46.125 -16.628906 48.34375 -18.921875 C 50.5625 -21.210938 51.671875 -25.023438 51.671875 -30.359375 L 51.671875 -74.75 C 51.671875 -76.34375 52.328125 -77.140625 53.640625 -77.140625 L 69.25 -77.140625 C 70.488281 -77.140625 71.109375 -76.414062 71.109375 -74.96875 Z M 71.109375 -30.46875 "/></g></g></g><g fill="#0097b2" fill-opacity="1"><g transform="translate(457.298711, 231.974348)"><g><path d="M 2.90625 -74.75 C 2.90625 -75.445312 3.128906 -76.019531 3.578125 -76.46875 C 4.035156 -76.914062 4.679688 -77.140625 5.515625 -77.140625 L 67.6875 -77.140625 C 68.519531 -77.140625 69.160156 -76.914062 69.609375 -76.46875 C 70.054688 -76.019531 70.28125 -75.445312 70.28125 -74.75 L 70.28125 -62.375 C 70.28125 -61.0625 69.519531 -60.40625 68 -60.40625 L 49.59375 -60.40625 C 48.757812 -60.40625 48.34375 -60.054688 48.34375 -59.359375 L 48.34375 -2.28125 C 48.34375 -1.519531 48.171875 -0.945312 47.828125 -0.5625 C 47.484375 -0.1875 47 0 46.375 0 L 26.609375 0 C 25.367188 0 24.75 -0.691406 24.75 -2.078125 L 24.75 -58.953125 C 24.75 -59.921875 24.363281 -60.40625 23.59375 -60.40625 L 5.296875 -60.40625 C 3.703125 -60.40625 2.90625 -61.0625 2.90625 -62.375 Z M 2.90625 -74.75 "/></g></g></g><g fill="#0097b2" fill-opacity="1"><g transform="translate(530.492214, 231.974348)"><g><path d="M 2.90625 -74.75 C 2.90625 -75.445312 3.128906 -76.019531 3.578125 -76.46875 C 4.035156 -76.914062 4.679688 -77.140625 5.515625 -77.140625 L 67.6875 -77.140625 C 68.519531 -77.140625 69.160156 -76.914062 69.609375 -76.46875 C 70.054688 -76.019531 70.28125 -75.445312 70.28125 -74.75 L 70.28125 -62.375 C 70.28125 -61.0625 69.519531 -60.40625 68 -60.40625 L 49.59375 -60.40625 C 48.757812 -60.40625 48.34375 -60.054688 48.34375 -59.359375 L 48.34375 -2.28125 C 48.34375 -1.519531 48.171875 -0.945312 47.828125 -0.5625 C 47.484375 -0.1875 47 0 46.375 0 L 26.609375 0 C 25.367188 0 24.75 -0.691406 24.75 -2.078125 L 24.75 -58.953125 C 24.75 -59.921875 24.363281 -60.40625 23.59375 -60.40625 L 5.296875 -60.40625 C 3.703125 -60.40625 2.90625 -61.0625 2.90625 -62.375 Z M 2.90625 -74.75 "/></g></g></g><g fill="#0097b2" fill-opacity="1"><g transform="translate(603.685716, 231.974348)"><g><path d="M 5.40625 -74.75 C 5.40625 -76.34375 6.0625 -77.140625 7.375 -77.140625 L 63.53125 -77.140625 C 64.769531 -77.140625 65.390625 -76.414062 65.390625 -74.96875 L 65.296875 -62.90625 C 65.296875 -61.03125 64.394531 -60.09375 62.59375 -60.09375 L 31.40625 -60.09375 C 29.800781 -60.09375 29 -59.4375 29 -58.125 L 29 -49.28125 C 29 -48.582031 29.171875 -48.039062 29.515625 -47.65625 C 29.867188 -47.28125 30.320312 -47.09375 30.875 -47.09375 L 49.59375 -47.09375 C 51.050781 -47.09375 51.78125 -46.398438 51.78125 -45.015625 L 51.78125 -32.125 C 51.78125 -30.945312 51.15625 -30.359375 49.90625 -30.359375 L 30.671875 -30.359375 C 30.179688 -30.359375 29.78125 -30.21875 29.46875 -29.9375 C 29.15625 -29.664062 29 -29.320312 29 -28.90625 L 29 -18.5 C 29 -17.945312 29.085938 -17.566406 29.265625 -17.359375 C 29.441406 -17.148438 29.769531 -17.046875 30.25 -17.046875 L 64.046875 -17.046875 C 65.566406 -17.046875 66.328125 -16.390625 66.328125 -15.078125 L 66.328125 -2.28125 C 66.328125 -1.59375 66.117188 -1.039062 65.703125 -0.625 C 65.285156 -0.207031 64.664062 0 63.84375 0 L 8.21875 0 C 7.175781 0 6.445312 -0.207031 6.03125 -0.625 C 5.613281 -1.039062 5.40625 -1.695312 5.40625 -2.59375 Z M 5.40625 -74.75 "/></g></g></g><g fill="#0097b2" fill-opacity="1"><g transform="translate(673.448312, 231.974348)"><g><path d="M 72.875 -3.328125 C 73.019531 -3.046875 73.09375 -2.664062 73.09375 -2.1875 C 73.09375 -1.5625 72.898438 -1.039062 72.515625 -0.625 C 72.140625 -0.207031 71.640625 0 71.015625 0 L 50.84375 0 C 49.382812 0 48.445312 -0.726562 48.03125 -2.1875 L 38.265625 -29 C 38.054688 -29.5625 37.707031 -29.976562 37.21875 -30.25 C 36.738281 -30.53125 36.007812 -30.671875 35.03125 -30.671875 L 30.25 -30.671875 C 29.832031 -30.671875 29.519531 -30.53125 29.3125 -30.25 C 29.101562 -29.976562 29 -29.738281 29 -29.53125 L 29 -3.015625 C 29 -1.910156 28.722656 -1.128906 28.171875 -0.671875 C 27.617188 -0.222656 26.753906 0 25.578125 0 L 8.109375 0 C 7.066406 0 6.351562 -0.207031 5.96875 -0.625 C 5.59375 -1.039062 5.40625 -1.695312 5.40625 -2.59375 L 5.40625 -74.75 C 5.40625 -76.34375 6.0625 -77.140625 7.375 -77.140625 L 42.109375 -77.140625 C 52.160156 -77.140625 59.957031 -75.21875 65.5 -71.375 C 71.039062 -67.53125 73.8125 -62.109375 73.8125 -55.109375 C 73.8125 -50.316406 72.546875 -46.050781 70.015625 -42.3125 C 67.492188 -38.570312 64.222656 -35.9375 60.203125 -34.40625 C 59.785156 -34.207031 59.578125 -33.863281 59.578125 -33.375 C 59.578125 -33.164062 59.644531 -32.851562 59.78125 -32.4375 Z M 41.171875 -46.15625 C 43.804688 -46.15625 45.832031 -46.832031 47.25 -48.1875 C 48.675781 -49.539062 49.390625 -51.359375 49.390625 -53.640625 C 49.390625 -56.210938 48.539062 -58.207031 46.84375 -59.625 C 45.144531 -61.039062 43.046875 -61.75 40.546875 -61.75 L 31.40625 -61.75 C 30.5 -61.75 29.867188 -61.59375 29.515625 -61.28125 C 29.171875 -60.976562 29 -60.441406 29 -59.671875 L 29 -48.34375 C 29 -47.582031 29.117188 -47.023438 29.359375 -46.671875 C 29.609375 -46.328125 30.082031 -46.15625 30.78125 -46.15625 Z M 41.171875 -46.15625 "/></g></g></g></svg>